M48
; DRILL file KiCad 10.0.6 date 2026-10-03T11:33:16
; FORMAT={-:-/ absolute / metric / decimal}
; #@! TF.CreationDate,2026-10-03T11:33:16+10:00
; #@! TF.GenerationSoftware,Kicad,Pcbnew,10.0.6
; #@! TF.FileFunction,Plated,1,2,Blind
FMAT,2
METRIC
; #@! TA.AperFunction,Plated,Buried,ViaDrill
T1C0.100
%
G90
G05
T1
X110.275Y-79.9
X110.275Y-80.55
X110.275Y-81.2
X110.275Y-81.85
X110.275Y-82.5
X110.275Y-83.15
X110.275Y-83.8
X110.275Y-84.45
X110.275Y-85.1
X110.275Y-85.75
X110.275Y-87.7
X110.275Y-88.35
X110.275Y-89.0
X110.275Y-89.65
X110.275Y-90.3
X110.275Y-90.95
X110.275Y-91.6
X110.275Y-92.25
X110.275Y-92.9
X110.275Y-93.55
X111.075Y-79.9
X111.075Y-80.55
X111.075Y-81.2
X111.075Y-81.85
X111.075Y-82.5
X111.075Y-83.15
X111.075Y-83.8
X111.075Y-84.45
X111.075Y-85.1
X111.075Y-85.75
X111.075Y-87.7
X111.075Y-88.35
X111.075Y-89.0
X111.075Y-89.65
X111.075Y-90.3
X111.075Y-90.95
X111.075Y-91.6
X111.075Y-92.25
X111.075Y-92.9
X111.075Y-93.55
X111.875Y-79.9
X111.875Y-80.55
X111.875Y-81.2
X111.875Y-81.85
X111.875Y-82.5
X111.875Y-83.15
X111.875Y-83.8
X111.875Y-84.45
X111.875Y-85.1
X111.875Y-85.75
X111.875Y-87.7
X111.875Y-88.35
X111.875Y-89.0
X111.875Y-89.65
X111.875Y-90.3
X111.875Y-90.95
X111.875Y-91.6
X111.875Y-92.25
X111.875Y-92.9
X111.875Y-93.55
X112.675Y-79.9
X112.675Y-80.55
X112.675Y-81.2
X112.675Y-81.85
X112.675Y-82.5
X112.675Y-83.15
X112.675Y-83.8
X112.675Y-84.45
X112.675Y-85.1
X112.675Y-85.75
X112.675Y-87.7
X112.675Y-88.35
X112.675Y-89.0
X112.675Y-89.65
X112.675Y-90.3
X112.675Y-90.95
X112.675Y-91.6
X112.675Y-92.25
X112.675Y-92.9
X112.675Y-93.55
X113.475Y-79.9
X113.475Y-80.55
X113.475Y-81.2
X113.475Y-81.85
X113.475Y-82.5
X113.475Y-83.15
X113.475Y-83.8
X113.475Y-84.45
X113.475Y-85.1
X113.475Y-85.75
X113.475Y-87.7
X113.475Y-88.35
X113.475Y-89.0
X113.475Y-89.65
X113.475Y-90.3
X113.475Y-90.95
X113.475Y-91.6
X113.475Y-92.25
X113.475Y-92.9
X113.475Y-93.55
X115.875Y-79.9
X115.875Y-80.55
X115.875Y-81.2
X115.875Y-81.85
X115.875Y-82.5
X115.875Y-83.15
X115.875Y-83.8
X115.875Y-84.45
X115.875Y-85.1
X115.875Y-85.75
X115.875Y-87.7
X115.875Y-88.35
X115.875Y-89.0
X115.875Y-89.65
X115.875Y-90.3
X115.875Y-90.95
X115.875Y-91.6
X115.875Y-92.25
X115.875Y-92.9
X115.875Y-93.55
X116.675Y-79.9
X116.675Y-80.55
X116.675Y-81.2
X116.675Y-81.85
X116.675Y-82.5
X116.675Y-83.15
X116.675Y-83.8
X116.675Y-84.45
X116.675Y-85.1
X116.675Y-85.75
X116.675Y-87.7
X116.675Y-88.35
X116.675Y-89.0
X116.675Y-89.65
X116.675Y-90.3
X116.675Y-90.95
X116.675Y-91.6
X116.675Y-92.25
X116.675Y-92.9
X116.675Y-93.55
X117.475Y-79.9
X117.475Y-80.55
X117.475Y-81.2
X117.475Y-81.85
X117.475Y-82.5
X117.475Y-83.15
X117.475Y-83.8
X117.475Y-84.45
X117.475Y-85.1
X117.475Y-85.75
X117.475Y-87.7
X117.475Y-88.35
X117.475Y-89.0
X117.475Y-89.65
X117.475Y-90.3
X117.475Y-90.95
X117.475Y-91.6
X117.475Y-92.25
X117.475Y-92.9
X117.475Y-93.55
X118.275Y-79.9
X118.275Y-80.55
X118.275Y-81.2
X118.275Y-81.85
X118.275Y-82.5
X118.275Y-83.15
X118.275Y-83.8
X118.275Y-84.45
X118.275Y-85.1
X118.275Y-85.75
X118.275Y-87.7
X118.275Y-88.35
X118.275Y-89.0
X118.275Y-89.65
X118.275Y-90.3
X118.275Y-90.95
X118.275Y-91.6
X118.275Y-92.25
X118.275Y-92.9
X118.275Y-93.55
X119.075Y-79.9
X119.075Y-80.55
X119.075Y-81.2
X119.075Y-81.85
X119.075Y-82.5
X119.075Y-83.15
X119.075Y-83.8
X119.075Y-84.45
X119.075Y-85.1
X119.075Y-85.75
X119.075Y-87.7
X119.075Y-88.35
X119.075Y-89.0
X119.075Y-89.65
X119.075Y-90.3
X119.075Y-90.95
X119.075Y-91.6
X119.075Y-92.25
X119.075Y-92.9
X119.075Y-93.55
X125.725Y-79.975
X125.725Y-80.625
X125.725Y-81.275
X125.725Y-81.925
X125.725Y-82.575
X125.725Y-83.225
X125.725Y-83.875
X125.725Y-84.525
X125.725Y-85.175
X125.725Y-89.075
X125.725Y-89.725
X125.725Y-90.375
X125.725Y-91.025
X125.725Y-91.675
X125.725Y-92.325
X125.725Y-92.975
X125.725Y-93.625
X126.375Y-80.625
X126.375Y-81.275
X126.375Y-81.925
X126.375Y-82.575
X126.375Y-83.225
X126.375Y-83.875
X126.375Y-84.525
X126.375Y-85.175
X126.375Y-85.825
X126.375Y-88.425
X126.375Y-89.075
X126.375Y-89.725
X126.375Y-90.375
X126.375Y-91.675
X126.375Y-92.325
X126.375Y-92.975
X126.375Y-93.625
X127.675Y-81.925
X127.675Y-82.575
X127.675Y-83.225
X127.675Y-89.725
X127.675Y-91.675
X127.675Y-92.325
X127.675Y-92.975
X127.675Y-97.525
X127.688Y-96.236
X128.325Y-82.575
X128.325Y-89.725
X128.325Y-92.325
X128.325Y-97.525
X128.328Y-96.875
X128.338Y-96.236
X128.342Y-95.581
X128.975Y-98.175
X128.975Y-98.825
X128.978Y-96.875
X128.992Y-95.531
X129.625Y-84.525
X130.275Y-84.525
X140.025Y-96.225
X140.913Y-77.175
X141.825Y-77.175
X141.975Y-98.175
X142.525Y-76.6
X142.625Y-92.325
X143.475Y-76.6
X143.925Y-83.875
X143.925Y-87.775
X143.925Y-88.425
X144.575Y-83.225
X144.575Y-83.875
X144.575Y-84.525
X145.225Y-83.225
X145.225Y-84.525
X145.225Y-92.975
X145.225Y-93.625
X145.875Y-93.625
X145.875Y-94.925
X146.525Y-93.625
X146.525Y-94.925
M30
