M48
; DRILL file KiCad 10.0.6 date 2026-10-03T11:33:16
; FORMAT={-:-/ absolute / metric / decimal}
; #@! TF.CreationDate,2026-10-03T11:33:16+10:00
; #@! TF.GenerationSoftware,Kicad,Pcbnew,10.0.6
; #@! TF.FileFunction,Plated,1,10,PTH
FMAT,2
METRIC
; #@! TA.AperFunction,Plated,PTH,ViaDrill
T1C0.100
; #@! TA.AperFunction,Plated,PTH,ViaDrill
T2C0.150
; #@! TA.AperFunction,Plated,PTH,ViaDrill
T3C0.200
; #@! TA.AperFunction,Plated,PTH,ViaDrill
T4C0.220
; #@! TA.AperFunction,Plated,PTH,ViaDrill
T5C0.300
; #@! TA.AperFunction,Plated,PTH,ComponentDrill
T6C0.400
; #@! TA.AperFunction,Plated,PTH,ComponentDrill
T7C0.450
; #@! TA.AperFunction,Plated,PTH,ComponentDrill
T8C0.500
; #@! TA.AperFunction,Plated,PTH,ComponentDrill
T9C0.550
; #@! TA.AperFunction,Plated,PTH,ComponentDrill
T10C0.600
; #@! TA.AperFunction,Plated,PTH,ComponentDrill
T11C0.890
; #@! TA.AperFunction,Plated,PTH,ComponentDrill
T12C1.000
; #@! TA.AperFunction,Plated,PTH,ComponentDrill
T13C1.140
; #@! TA.AperFunction,Plated,PTH,ComponentDrill
T14C1.570
; #@! TA.AperFunction,Plated,PTH,ComponentDrill
T15C2.500
%
G90
G05
T1
X125.475Y-79.725
X126.041Y-83.534
T2
X117.475Y-88.35
X125.125Y-123.425
X125.625Y-123.425
X126.625Y-123.425
X127.125Y-123.425
X128.225Y-123.425
X128.725Y-123.425
X129.725Y-123.425
X130.225Y-123.425
X140.525Y-74.875
X142.671Y-106.019
X142.671Y-107.284
X142.675Y-104.725
X144.312Y-75.825
X144.775Y-75.725
X148.469Y-107.227
X148.469Y-108.477
X148.473Y-105.934
X164.5Y-86.8
X165.5Y-85.8
X166.0Y-88.3
X166.5Y-83.8
X166.5Y-90.3
X167.0Y-84.3
X167.0Y-86.3
X167.5Y-83.8
X168.5Y-84.3
T3
X65.7Y-127.85
X65.875Y-126.525
X65.875Y-127.075
X68.675Y-126.375
X68.675Y-126.875
X68.675Y-127.375
X68.675Y-127.875
X68.675Y-128.375
X68.875Y-80.375
X69.175Y-126.375
X69.175Y-126.875
X69.175Y-127.375
X69.175Y-127.875
X69.175Y-128.375
X69.375Y-80.375
X69.375Y-80.875
X69.375Y-81.375
X69.375Y-81.875
X69.675Y-126.375
X69.675Y-126.875
X69.675Y-127.375
X69.675Y-127.875
X69.675Y-128.375
X70.175Y-82.575
X70.675Y-80.825
X70.975Y-80.431
X71.267Y-80.822
X71.775Y-121.625
X72.875Y-80.575
X73.875Y-127.525
X73.875Y-129.975
X73.975Y-78.775
X73.975Y-80.075
X74.175Y-76.475
X74.175Y-77.675
X77.925Y-113.775
X77.925Y-114.225
X78.425Y-113.775
X78.425Y-114.225
X78.925Y-113.775
X78.925Y-114.225
X79.425Y-113.775
X79.425Y-114.225
X79.925Y-113.775
X79.925Y-114.225
X81.225Y-86.625
X81.725Y-86.625
X81.725Y-87.125
X81.725Y-87.625
X81.725Y-88.125
X82.385Y-88.685
X83.033Y-87.087
X83.334Y-86.693
X83.625Y-87.084
X95.625Y-57.875
X95.675Y-59.025
X95.85Y-55.82
X95.975Y-57.875
X96.025Y-59.025
X96.25Y-55.82
X96.325Y-57.875
X96.375Y-59.025
X96.625Y-55.1
X96.625Y-55.45
X96.77Y-51.875
X96.77Y-51.875
X98.675Y-53.35
X99.025Y-62.65
X99.075Y-53.35
X99.475Y-53.575
X99.77Y-53.775
X100.225Y-62.65
X100.275Y-62.3
X101.025Y-62.55
X101.225Y-62.25
X102.625Y-62.3
X102.725Y-62.6
X109.375Y-88.05
X109.425Y-84.5
X109.475Y-85.75
X110.275Y-87.3
X110.637Y-89.331
X110.725Y-81.75
X110.725Y-91.85
X110.825Y-79.55
X110.825Y-80.25
X111.375Y-85.4
X111.409Y-92.575
X111.425Y-84.82
X111.475Y-54.85
X111.875Y-87.3
X112.263Y-84.818
X113.097Y-84.831
X113.125Y-90.0
X114.05Y-89.125
X114.175Y-84.85
X114.725Y-93.75
X115.325Y-89.65
X115.675Y-80.35
X116.23Y-80.349
X116.275Y-81.7
X116.325Y-89.75
X117.075Y-89.35
X117.075Y-91.9
X117.125Y-88.05
X117.135Y-92.585
X117.375Y-86.7
X117.875Y-84.8
X118.053Y-92.623
X118.475Y-91.9
X118.625Y-88.0
X118.775Y-84.85
X118.775Y-86.65
X119.325Y-86.7
X121.625Y-126.775
X124.531Y-126.517
X125.125Y-125.475
X125.625Y-125.475
X126.049Y-84.848
X126.075Y-80.325
X126.075Y-80.975
X126.675Y-81.65
X126.675Y-82.275
X126.675Y-91.025
X126.701Y-84.852
X126.702Y-82.899
X126.702Y-83.549
X126.702Y-85.499
X126.875Y-88.275
X127.025Y-86.575
X127.025Y-86.825
X127.025Y-91.975
X127.025Y-92.675
X127.025Y-94.925
X127.325Y-90.375
X127.336Y-80.3
X127.357Y-85.507
X127.375Y-95.275
X127.675Y-98.825
X127.675Y-99.475
X127.975Y-82.275
X128.225Y-125.475
X128.625Y-82.275
X128.725Y-125.475
X128.975Y-83.875
X128.975Y-86.175
X128.975Y-86.775
X128.975Y-87.475
X129.275Y-80.275
X129.275Y-80.625
X129.325Y-84.825
X129.625Y-91.025
X129.625Y-91.675
X129.625Y-92.325
X129.625Y-100.125
X129.943Y-84.857
X129.975Y-80.625
X130.275Y-91.675
X130.275Y-92.975
X130.275Y-93.625
X130.275Y-95.575
X130.275Y-96.875
X130.525Y-97.225
X130.575Y-91.375
X130.625Y-80.625
X130.625Y-85.475
X130.625Y-90.725
X130.925Y-86.175
X130.925Y-86.775
X130.925Y-87.475
X130.925Y-99.475
X131.213Y-89.804
X131.225Y-80.625
X131.225Y-90.725
X131.225Y-91.325
X131.575Y-96.875
X131.575Y-97.525
X131.625Y-89.825
X131.675Y-107.425
X131.875Y-90.725
X131.925Y-91.375
X132.225Y-87.425
X132.225Y-88.125
X132.225Y-89.695
X132.225Y-96.225
X132.225Y-97.525
X132.225Y-98.175
X132.225Y-98.825
X132.525Y-90.725
X132.525Y-95.225
X132.575Y-80.625
X132.575Y-91.375
X132.875Y-87.125
X132.875Y-92.325
X133.225Y-80.625
X133.225Y-89.425
X133.225Y-95.275
X133.275Y-85.825
X133.275Y-99.725
X133.48Y-97.54
X133.525Y-83.875
X133.525Y-85.175
X133.525Y-92.975
X133.525Y-92.975
X133.525Y-98.825
X133.525Y-99.175
X133.825Y-88.125
X133.825Y-95.275
X133.875Y-80.625
X133.875Y-89.425
X133.875Y-89.425
X133.882Y-88.775
X134.17Y-96.23
X134.17Y-97.41
X134.175Y-85.175
X134.19Y-93.015
X134.518Y-86.219
X134.525Y-80.625
X134.525Y-95.275
X134.825Y-85.175
X134.825Y-88.075
X134.825Y-88.725
X134.825Y-93.625
X135.125Y-80.625
X135.125Y-94.625
X135.175Y-95.275
X135.475Y-89.075
X135.775Y-89.725
X135.825Y-80.625
X136.125Y-93.625
X136.375Y-114.125
X136.425Y-80.625
X136.425Y-96.675
X136.475Y-90.725
X136.753Y-93.677
X136.78Y-89.69
X136.845Y-70.62
X137.075Y-80.325
X137.075Y-88.725
X137.075Y-90.725
X137.125Y-94.925
X137.145Y-70.62
X137.375Y-99.475
X137.399Y-85.21
X137.41Y-87.095
X137.425Y-95.575
X137.445Y-70.62
X137.55Y-124.775
X137.555Y-126.605
X137.695Y-75.37
X137.695Y-75.72
X137.695Y-76.07
X137.775Y-89.425
X137.775Y-90.725
X137.775Y-94.575
X137.825Y-88.725
X138.05Y-124.775
X138.075Y-83.225
X138.075Y-96.21
X138.075Y-97.525
X138.115Y-96.85
X138.375Y-95.275
X138.425Y-80.625
X138.425Y-93.975
X138.425Y-94.625
X138.517Y-107.75
X138.725Y-89.075
X138.725Y-91.025
X138.725Y-99.475
X138.73Y-86.52
X139.025Y-80.625
X139.025Y-95.275
X139.075Y-97.175
X139.295Y-70.32
X139.295Y-70.67
X139.375Y-91.025
X139.375Y-94.925
X139.445Y-66.77
X139.675Y-96.525
X139.725Y-80.625
X139.725Y-91.975
X139.725Y-97.175
X139.725Y-99.725
X139.745Y-66.77
X139.775Y-99.175
X139.995Y-83.87
X140.025Y-94.925
X140.045Y-66.77
X140.264Y-86.716
X140.275Y-99.225
X140.32Y-87.225
X140.325Y-99.775
X140.375Y-91.375
X140.375Y-92.025
X140.675Y-79.975
X140.675Y-94.275
X140.685Y-83.23
X140.685Y-83.89
X140.975Y-88.725
X141.025Y-88.125
X141.32Y-93.538
X141.325Y-84.525
X141.35Y-92.31
X141.675Y-88.775
X141.845Y-67.77
X141.975Y-90.375
X141.975Y-91.025
X141.975Y-93.625
X142.195Y-67.77
X142.475Y-93.775
X142.975Y-89.775
X142.975Y-92.05
X142.995Y-67.57
X143.275Y-83.875
X143.275Y-95.575
X143.28Y-87.79
X143.29Y-87.11
X143.345Y-67.92
X143.395Y-67.57
X143.425Y-89.775
X143.817Y-89.777
X143.925Y-92.975
X144.245Y-67.72
X144.272Y-92.586
X144.575Y-95.575
X144.575Y-96.225
X144.575Y-97.525
X144.575Y-99.475
X144.595Y-67.72
X144.875Y-80.925
X145.575Y-85.525
X145.575Y-86.175
X145.875Y-81.925
X145.875Y-83.225
X145.875Y-84.525
X145.875Y-87.125
X145.875Y-95.575
X146.225Y-80.275
X146.525Y-88.425
X146.725Y-78.775
X146.875Y-79.675
X146.975Y-79.075
X147.075Y-78.475
X147.195Y-75.67
X147.195Y-76.02
X147.195Y-76.37
X147.325Y-78.775
X147.375Y-78.175
X147.545Y-70.02
X147.545Y-70.37
X147.545Y-71.27
X147.545Y-71.62
X147.625Y-78.475
X148.345Y-76.12
X148.645Y-76.12
X148.945Y-76.12
X149.445Y-72.62
X149.445Y-72.92
X149.445Y-73.22
X149.445Y-73.77
X149.445Y-74.07
X149.445Y-74.37
X149.445Y-78.77
X149.745Y-78.77
X150.045Y-78.77
X152.475Y-105.05
X156.175Y-90.85
X157.075Y-92.45
X157.575Y-85.75
X161.275Y-94.75
X162.975Y-102.75
X163.625Y-104.07
X164.801Y-86.176
X165.809Y-87.181
X166.975Y-83.75
X167.01Y-83.275
X192.42Y-90.425
X193.02Y-89.225
X193.02Y-90.025
X193.32Y-88.825
X193.32Y-89.625
T4
X140.913Y-77.625
X141.825Y-77.625
X142.525Y-77.05
X143.474Y-77.04
T5
X64.675Y-57.925
X64.675Y-58.675
X64.675Y-59.425
X64.675Y-60.175
X64.675Y-60.925
X64.675Y-61.675
X64.675Y-62.425
X64.675Y-63.175
X64.675Y-63.925
X64.675Y-64.675
X64.675Y-65.425
X64.675Y-66.175
X64.675Y-66.925
X64.675Y-67.675
X64.675Y-68.425
X64.675Y-69.175
X65.425Y-57.925
X65.425Y-58.675
X65.425Y-59.425
X65.425Y-60.175
X65.425Y-60.925
X65.425Y-61.675
X65.425Y-62.425
X65.425Y-63.175
X65.425Y-63.925
X65.425Y-64.675
X65.425Y-65.425
X65.425Y-66.175
X65.425Y-66.925
X65.425Y-67.675
X65.425Y-68.425
X65.425Y-69.175
X66.425Y-57.925
X66.425Y-58.675
X66.425Y-59.425
X66.425Y-133.875
X67.125Y-133.875
X67.175Y-57.925
X67.175Y-58.675
X67.175Y-59.425
X67.825Y-133.875
X67.825Y-134.625
X68.3Y-108.4
X68.3Y-109.2
X68.3Y-110.0
X68.425Y-57.675
X68.425Y-58.425
X68.425Y-59.175
X68.525Y-133.875
X68.525Y-134.625
X68.675Y-130.075
X69.1Y-108.4
X69.1Y-109.2
X69.1Y-110.0
X69.175Y-57.675
X69.175Y-58.425
X69.175Y-59.175
X69.225Y-134.625
X69.275Y-133.875
X69.425Y-83.325
X69.425Y-129.725
X69.425Y-130.425
X69.9Y-108.4
X69.9Y-109.2
X69.9Y-110.0
X69.925Y-57.675
X69.925Y-58.425
X69.925Y-59.175
X69.925Y-134.625
X69.975Y-133.875
X70.175Y-83.325
X70.425Y-84.825
X70.425Y-85.525
X70.425Y-86.225
X70.425Y-86.925
X70.425Y-87.625
X70.675Y-57.675
X70.675Y-58.425
X70.675Y-59.175
X70.675Y-133.875
X70.675Y-134.625
X70.7Y-108.4
X70.7Y-109.2
X70.7Y-110.0
X71.375Y-133.875
X71.375Y-134.625
X71.425Y-57.675
X71.425Y-58.425
X71.425Y-59.175
X71.5Y-108.4
X71.5Y-109.2
X71.5Y-110.0
X72.025Y-128.775
X72.075Y-133.875
X72.075Y-134.625
X72.3Y-108.4
X72.3Y-109.2
X72.3Y-110.0
X72.725Y-128.775
X72.775Y-133.875
X72.775Y-134.625
X73.1Y-108.4
X73.1Y-109.2
X73.1Y-110.0
X73.475Y-133.875
X73.475Y-134.625
X73.9Y-108.4
X73.9Y-109.2
X73.9Y-110.0
X73.975Y-103.375
X73.975Y-106.075
X74.075Y-92.375
X74.075Y-95.075
X74.175Y-133.875
X74.175Y-134.625
X74.675Y-103.375
X74.675Y-106.075
X74.7Y-108.4
X74.7Y-109.2
X74.7Y-110.0
X74.775Y-92.375
X74.775Y-95.075
X74.875Y-133.875
X74.875Y-134.625
X74.975Y-65.975
X74.975Y-66.725
X74.975Y-67.475
X74.975Y-68.225
X74.975Y-68.975
X74.975Y-69.725
X74.975Y-70.475
X74.975Y-71.225
X75.375Y-103.375
X75.375Y-106.075
X75.475Y-92.375
X75.475Y-95.075
X75.5Y-108.4
X75.5Y-109.2
X75.5Y-110.0
X75.575Y-133.875
X75.575Y-134.625
X75.675Y-78.125
X75.675Y-78.925
X75.725Y-65.975
X75.725Y-66.725
X75.725Y-67.475
X75.725Y-68.225
X75.725Y-68.975
X75.725Y-69.725
X75.725Y-70.475
X75.725Y-71.225
X75.725Y-71.975
X75.725Y-72.725
X75.87Y-130.77
X76.075Y-103.375
X76.075Y-106.075
X76.175Y-92.375
X76.175Y-95.075
X76.275Y-134.625
X76.3Y-108.4
X76.3Y-109.2
X76.3Y-110.0
X76.425Y-74.875
X76.425Y-75.675
X76.425Y-76.625
X76.425Y-77.425
X76.425Y-78.125
X76.425Y-78.925
X76.475Y-65.975
X76.475Y-66.725
X76.475Y-67.475
X76.475Y-68.225
X76.475Y-68.975
X76.475Y-69.725
X76.475Y-70.475
X76.475Y-71.225
X76.475Y-71.975
X76.475Y-72.725
X76.625Y-130.775
X76.775Y-103.375
X76.775Y-106.075
X76.875Y-92.375
X76.875Y-95.075
X76.875Y-117.075
X76.875Y-117.825
X76.875Y-118.575
X77.1Y-108.4
X77.1Y-109.2
X77.1Y-110.0
X77.175Y-76.625
X77.175Y-77.425
X77.175Y-78.125
X77.175Y-78.925
X77.225Y-65.975
X77.373Y-130.775
X77.475Y-103.375
X77.475Y-106.075
X77.575Y-92.375
X77.575Y-95.075
X77.725Y-118.575
X77.9Y-108.4
X77.9Y-109.2
X77.9Y-110.0
X77.925Y-76.625
X77.925Y-77.425
X77.925Y-78.125
X77.925Y-78.925
X77.975Y-65.975
X78.12Y-129.97
X78.12Y-130.77
X78.12Y-131.62
X78.12Y-132.32
X78.12Y-133.02
X78.12Y-133.72
X78.12Y-134.42
X78.7Y-108.4
X78.7Y-109.2
X78.7Y-110.0
X78.875Y-129.975
X78.875Y-130.775
X78.875Y-131.625
X78.875Y-132.325
X78.875Y-133.025
X78.875Y-133.725
X78.875Y-134.425
X79.175Y-64.425
X79.175Y-65.175
X79.175Y-65.925
X79.5Y-108.4
X79.5Y-109.2
X79.5Y-110.0
X79.623Y-129.975
X79.623Y-130.775
X79.623Y-131.625
X79.623Y-132.325
X79.623Y-133.025
X79.623Y-133.725
X79.623Y-134.425
X79.925Y-64.425
X79.925Y-65.175
X79.925Y-65.925
X80.3Y-108.4
X80.3Y-109.2
X80.3Y-110.0
X80.675Y-64.425
X80.675Y-65.175
X80.675Y-65.925
X80.975Y-129.975
X80.975Y-130.775
X81.1Y-108.4
X81.1Y-109.2
X81.1Y-110.0
X81.425Y-64.425
X81.425Y-65.175
X81.425Y-65.925
X81.675Y-129.975
X81.675Y-130.775
X81.825Y-116.525
X81.825Y-117.275
X81.825Y-118.025
X81.825Y-118.775
X81.9Y-108.4
X81.9Y-109.2
X81.9Y-110.0
X81.9Y-110.8
X81.9Y-111.6
X81.925Y-113.938
X82.175Y-64.425
X82.175Y-65.175
X82.175Y-65.925
X82.375Y-89.575
X82.375Y-90.275
X82.375Y-129.975
X82.375Y-130.775
X82.375Y-131.575
X82.375Y-132.325
X82.375Y-133.025
X82.375Y-133.725
X82.375Y-134.475
X82.665Y-113.938
X82.7Y-108.4
X82.7Y-109.2
X82.7Y-110.0
X82.7Y-110.8
X82.7Y-111.6
X82.925Y-115.875
X82.925Y-116.615
X82.938Y-117.375
X82.938Y-118.115
X83.165Y-128.014
X83.165Y-128.714
X83.165Y-129.414
X83.165Y-130.164
X83.165Y-130.864
X83.165Y-131.564
X83.165Y-132.314
X83.165Y-133.014
X83.165Y-133.714
X83.165Y-134.464
X83.275Y-91.175
X83.275Y-91.875
X83.275Y-92.575
X83.275Y-93.275
X83.275Y-93.975
X83.5Y-108.4
X83.5Y-109.2
X83.5Y-110.0
X83.5Y-110.8
X83.5Y-111.6
X83.965Y-128.014
X83.965Y-128.714
X83.965Y-129.414
X83.965Y-130.164
X83.965Y-130.864
X83.965Y-131.564
X83.965Y-132.314
X83.965Y-133.014
X83.965Y-133.714
X83.965Y-134.464
X84.3Y-108.4
X84.3Y-109.2
X84.3Y-110.0
X84.3Y-110.8
X84.3Y-111.6
X85.1Y-108.4
X85.1Y-109.2
X85.1Y-110.0
X85.1Y-110.8
X85.1Y-111.6
X87.325Y-85.225
X87.325Y-85.925
X87.62Y-59.925
X87.62Y-60.675
X87.825Y-99.025
X87.825Y-101.725
X88.42Y-59.925
X88.42Y-60.675
X88.525Y-99.025
X88.525Y-101.725
X89.191Y-57.817
X89.225Y-99.025
X89.225Y-101.725
X89.925Y-99.025
X89.925Y-101.725
X89.995Y-57.818
X90.625Y-99.025
X90.625Y-101.725
X90.791Y-57.816
X91.325Y-99.025
X91.325Y-101.725
X91.586Y-57.813
X91.925Y-40.475
X91.925Y-41.175
X91.925Y-41.925
X91.925Y-42.625
X91.925Y-43.375
X91.925Y-44.125
X91.925Y-44.875
X91.925Y-45.575
X91.925Y-46.325
X93.92Y-38.925
X93.92Y-39.675
X94.296Y-67.873
X94.304Y-67.102
X94.306Y-68.648
X94.309Y-69.444
X94.31Y-71.044
X94.311Y-70.24
X94.72Y-38.925
X94.72Y-39.675
X96.455Y-40.753
X96.457Y-41.549
X96.46Y-42.344
X96.47Y-43.12
X96.52Y-71.675
X96.52Y-72.425
X97.32Y-71.675
X97.32Y-72.425
X98.37Y-39.175
X98.37Y-39.925
X99.025Y-55.875
X99.025Y-56.625
X99.025Y-57.375
X99.025Y-58.125
X99.025Y-58.875
X99.025Y-59.575
X99.025Y-60.325
X99.17Y-39.175
X99.17Y-39.925
X99.775Y-55.875
X99.775Y-56.625
X99.775Y-57.375
X99.775Y-58.125
X99.775Y-58.875
X99.775Y-59.575
X99.775Y-60.325
X100.452Y-70.928
X100.459Y-70.157
X100.461Y-71.704
X100.465Y-72.499
X100.466Y-74.099
X100.466Y-73.295
X100.475Y-74.875
X100.478Y-75.67
X100.525Y-44.975
X100.525Y-45.675
X100.525Y-46.425
X100.525Y-47.125
X100.525Y-47.875
X100.525Y-48.625
X100.525Y-55.875
X100.525Y-56.625
X100.525Y-57.375
X100.525Y-58.125
X100.525Y-58.875
X100.525Y-59.575
X100.525Y-60.325
X101.275Y-55.875
X101.275Y-56.625
X101.275Y-57.375
X101.275Y-58.125
X101.275Y-58.875
X101.275Y-59.575
X101.275Y-60.325
X101.37Y-53.075
X102.025Y-55.875
X102.025Y-56.625
X102.025Y-57.375
X102.025Y-58.125
X102.025Y-58.875
X102.025Y-59.575
X102.025Y-60.325
X102.27Y-53.068
X102.37Y-43.425
X102.37Y-44.175
X102.775Y-55.875
X102.775Y-56.625
X102.775Y-57.375
X102.775Y-58.125
X102.775Y-58.875
X102.775Y-59.575
X102.775Y-60.325
X103.02Y-76.675
X103.02Y-77.425
X103.17Y-43.425
X103.17Y-44.175
X103.525Y-55.875
X103.525Y-56.625
X103.525Y-57.375
X103.525Y-58.125
X103.525Y-58.875
X103.525Y-59.575
X103.525Y-60.325
X103.82Y-76.675
X103.82Y-77.425
X104.62Y-76.675
X104.62Y-77.425
X105.845Y-56.225
X105.895Y-59.77
X107.295Y-57.87
X107.295Y-58.87
X111.35Y-56.84
X111.945Y-65.97
X112.146Y-56.838
X112.784Y-60.93
X112.941Y-56.835
X113.58Y-60.928
X113.717Y-56.825
X114.375Y-60.925
X114.521Y-56.826
X115.151Y-60.916
X115.317Y-56.824
X115.955Y-60.916
X116.17Y-59.175
X116.17Y-59.975
X116.751Y-60.915
X116.92Y-59.175
X116.92Y-59.975
X117.329Y-57.027
X117.546Y-60.911
X118.125Y-57.025
X118.322Y-60.902
X118.92Y-57.022
X119.093Y-60.909
X119.696Y-57.012
X120.17Y-54.625
X120.17Y-55.425
X120.17Y-63.425
X120.17Y-64.225
X120.17Y-65.025
X120.92Y-54.625
X120.92Y-55.425
X120.92Y-63.425
X120.92Y-64.225
X120.92Y-65.025
X121.725Y-49.125
X122.475Y-49.125
X123.045Y-55.47
X123.175Y-49.125
X123.591Y-59.359
X123.925Y-49.125
X123.925Y-59.925
X124.341Y-59.359
X124.675Y-49.125
X125.075Y-65.175
X125.075Y-65.875
X125.075Y-66.575
X125.425Y-49.125
X125.575Y-56.475
X125.825Y-65.175
X125.825Y-65.875
X125.825Y-66.575
X125.991Y-55.909
X126.125Y-49.125
X126.325Y-56.475
X126.575Y-65.175
X126.575Y-65.875
X126.575Y-66.575
X126.875Y-49.125
X127.575Y-49.125
X127.825Y-65.625
X127.825Y-66.325
X128.42Y-50.725
X128.42Y-51.525
X128.42Y-52.325
X128.575Y-62.825
X128.575Y-63.525
X128.575Y-64.225
X128.575Y-64.925
X128.575Y-65.625
X128.575Y-66.325
X129.17Y-50.725
X129.17Y-51.525
X129.17Y-52.325
X129.325Y-62.825
X129.325Y-63.525
X129.325Y-64.225
X129.325Y-64.925
X129.325Y-65.625
X129.325Y-66.325
X129.825Y-56.175
X129.825Y-56.875
X129.825Y-57.575
X130.575Y-56.175
X130.575Y-56.875
X130.575Y-57.575
X149.92Y-99.075
X149.92Y-99.875
X149.92Y-100.675
X150.67Y-99.075
X150.67Y-99.875
X150.67Y-100.675
X151.575Y-95.925
X152.325Y-95.925
X153.025Y-95.925
X153.775Y-95.925
X154.475Y-95.925
X154.9Y-56.1
X154.9Y-56.9
X154.9Y-57.7
X154.9Y-58.5
X154.9Y-59.3
X155.225Y-95.925
X155.7Y-56.1
X155.7Y-56.9
X155.7Y-57.7
X155.7Y-58.5
X155.7Y-59.3
X155.975Y-95.925
X156.5Y-66.85
X156.5Y-67.65
X156.5Y-68.45
X156.5Y-69.25
X156.5Y-70.05
X156.635Y-62.574
X156.635Y-63.274
X156.635Y-63.974
X156.675Y-95.925
X157.3Y-66.85
X157.3Y-67.65
X157.3Y-68.45
X157.3Y-69.25
X157.3Y-70.05
X157.385Y-62.574
X157.385Y-63.274
X157.385Y-63.974
X157.425Y-95.925
X158.13Y-62.574
X158.13Y-63.274
X158.13Y-63.974
X158.175Y-95.925
X158.245Y-73.35
X158.245Y-74.05
X158.245Y-74.75
X158.88Y-62.574
X158.88Y-63.274
X158.88Y-63.974
X158.925Y-95.925
X158.995Y-73.35
X158.995Y-74.05
X158.995Y-74.75
X159.625Y-95.925
X159.63Y-62.574
X159.63Y-63.274
X159.63Y-63.974
X159.74Y-73.35
X159.74Y-74.05
X159.74Y-74.75
X160.375Y-95.925
X160.49Y-73.35
X160.49Y-74.05
X160.49Y-74.75
X161.075Y-95.925
X161.24Y-73.35
X161.24Y-74.05
X161.24Y-74.75
X167.275Y-58.025
X167.275Y-58.725
X167.275Y-59.425
X167.275Y-60.125
X167.275Y-60.825
X168.84Y-68.75
X168.846Y-69.48
X168.846Y-70.18
X168.846Y-70.88
X168.846Y-71.58
X173.27Y-88.525
X173.27Y-89.275
X173.27Y-90.075
X174.02Y-88.525
X174.02Y-89.275
X174.02Y-90.075
X174.92Y-92.425
X175.72Y-92.425
X176.52Y-92.425
X177.32Y-92.425
X178.12Y-92.425
X178.92Y-92.425
X179.72Y-92.425
X180.52Y-92.425
X181.32Y-92.425
X182.12Y-92.425
X182.92Y-92.425
X183.72Y-92.425
X190.57Y-93.425
X190.57Y-94.175
X191.12Y-87.425
X191.12Y-88.175
X191.37Y-93.425
X191.37Y-94.175
X191.92Y-87.425
X191.92Y-88.175
X192.17Y-93.425
X192.17Y-94.175
X192.72Y-87.425
X192.72Y-88.175
X192.92Y-93.425
X192.92Y-94.175
X193.72Y-93.425
X193.72Y-94.175
T6
X126.0Y-129.015
X126.4Y-128.215
X126.8Y-129.015
X127.2Y-128.215
X127.6Y-129.015
X128.0Y-128.215
X128.4Y-129.015
X128.8Y-128.215
X129.2Y-129.015
X135.0Y-127.155
X135.4Y-127.855
X136.2Y-127.855
X136.6Y-127.155
X137.0Y-127.855
X137.4Y-127.155
X138.2Y-127.155
X138.6Y-127.855
X139.0Y-127.155
X139.4Y-127.855
X140.2Y-127.855
X140.6Y-127.155
T7
X77.151Y-128.338
X77.226Y-125.198
X77.226Y-126.378
X77.226Y-127.368
X78.276Y-125.888
X78.276Y-126.868
X78.276Y-127.848
X78.276Y-129.028
X79.326Y-125.888
X79.326Y-126.868
X79.326Y-127.848
X79.326Y-129.028
X80.376Y-125.198
X80.376Y-126.378
X80.376Y-127.368
X80.376Y-128.338
T8
X72.2Y-45.275
X72.749Y-43.949
X72.749Y-46.601
X74.075Y-43.4
X74.075Y-47.15
X75.401Y-43.949
X75.401Y-46.601
X75.95Y-45.275
X202.2Y-45.275
X202.2Y-125.275
X202.749Y-43.949
X202.749Y-46.601
X202.749Y-123.949
X202.749Y-126.601
X204.075Y-43.4
X204.075Y-47.15
X204.075Y-123.4
X204.075Y-127.15
X205.401Y-43.949
X205.401Y-46.601
X205.401Y-123.949
X205.401Y-126.601
X205.95Y-45.275
X205.95Y-125.275
T11
X137.405Y-42.995
X138.42Y-40.455
X138.425Y-45.535
X139.435Y-42.995
X140.45Y-40.455
X140.455Y-45.535
X141.465Y-42.995
X142.485Y-45.535
X144.515Y-45.535
X145.535Y-42.995
X146.545Y-45.535
X147.565Y-42.995
X148.575Y-45.535
X148.58Y-40.455
X149.595Y-42.995
T12
X154.05Y-82.14
X154.05Y-84.68
X178.052Y-100.657
X178.052Y-103.157
T13
X135.98Y-55.945
X135.98Y-58.485
X151.02Y-55.945
X151.02Y-58.485
T14
X134.71Y-52.135
X152.29Y-52.135
T15
X74.075Y-45.275
X204.075Y-45.275
X204.075Y-125.275
T9
G00X124.5Y-127.45
M15
G01X124.5Y-127.85
M16
G05
G00X124.5Y-132.345
M15
G01X124.5Y-132.745
M16
G05
G00X130.7Y-127.45
M15
G01X130.7Y-127.85
M16
G05
G00X130.7Y-132.35
M15
G01X130.7Y-132.75
M16
G05
T10
G00X75.911Y-124.668
M15
G01X75.911Y-125.468
M16
G05
G00X75.911Y-128.098
M15
G01X75.911Y-128.898
M16
G05
G00X77.046Y-132.098
M15
G01X77.046Y-133.698
M16
G05
G00X80.556Y-132.098
M15
G01X80.556Y-133.698
M16
G05
G00X81.691Y-124.668
M15
G01X81.691Y-125.468
M16
G05
G00X81.691Y-128.098
M15
G01X81.691Y-128.898
M16
G05
G00X133.31Y-131.855
M15
G01X133.31Y-132.455
M16
G05
G00X133.67Y-127.445
M15
G01X133.67Y-128.045
M16
G05
G00X141.93Y-127.445
M15
G01X141.93Y-128.045
M16
G05
G00X142.29Y-131.855
M15
G01X142.29Y-132.455
M16
G05
M30
