M48
; DRILL file KiCad 10.0.6 date 2026-10-03T11:33:16
; FORMAT={-:-/ absolute / metric / decimal}
; #@! TF.CreationDate,2026-10-03T11:33:16+10:00
; #@! TF.GenerationSoftware,Kicad,Pcbnew,10.0.6
; #@! TF.FileFunction,Plated,2,9,Buried
FMAT,2
METRIC
; #@! TA.AperFunction,Plated,Buried,ViaDrill
T1C0.100
; #@! TA.AperFunction,Plated,Buried,ViaDrill
T2C0.150
; #@! TA.AperFunction,Plated,Buried,ViaDrill
T3C0.200
%
G90
G05
T1
X125.375Y-80.625
X125.375Y-81.275
X125.375Y-81.925
X125.375Y-82.575
X125.375Y-83.875
X125.375Y-84.525
X125.375Y-85.175
T2
X144.875Y-82.875
X144.925Y-83.575
T3
X110.675Y-82.755
X110.75Y-92.575
X110.775Y-80.9
X110.775Y-82.2
X110.792Y-90.583
X110.792Y-91.233
X111.375Y-80.85
X111.393Y-93.218
X111.558Y-91.93
X111.575Y-82.8
X112.175Y-80.9
X112.175Y-82.15
X112.211Y-90.636
X112.225Y-91.25
X112.975Y-80.25
X112.975Y-80.9
X112.975Y-82.2
X112.975Y-82.85
X112.993Y-90.618
X112.993Y-91.268
X112.993Y-92.568
X112.993Y-93.218
X116.275Y-82.15
X116.275Y-82.75
X116.325Y-90.6
X116.325Y-91.25
X116.383Y-92.518
X116.975Y-80.85
X116.975Y-81.5
X116.993Y-93.218
X117.154Y-91.306
X117.167Y-90.663
X117.175Y-82.15
X117.175Y-82.8
X117.757Y-91.956
X117.775Y-81.5
X117.975Y-80.25
X117.975Y-80.9
X117.975Y-82.2
X118.575Y-83.45
X118.575Y-90.6
X118.593Y-93.218
X118.593Y-91.268
X118.593Y-92.568
X125.325Y-89.075
X125.325Y-89.725
X125.325Y-90.375
X125.325Y-91.025
X125.325Y-91.675
X125.325Y-92.325
X125.325Y-92.975
X125.325Y-93.625
X126.092Y-91.392
X126.092Y-88.708
X126.092Y-89.358
X126.092Y-90.008
X126.092Y-90.658
X126.092Y-92.042
X126.092Y-92.692
X126.092Y-93.342
X127.355Y-91.35
X127.375Y-93.275
X127.375Y-96.575
X127.392Y-89.442
X128.003Y-95.268
X128.004Y-91.996
X128.014Y-97.838
X128.025Y-96.575
X128.042Y-89.442
X128.65Y-92.002
X128.653Y-95.218
X128.675Y-96.525
X128.675Y-97.875
X128.675Y-98.475
X129.275Y-99.125
X129.312Y-96.55
X140.325Y-96.525
X141.175Y-68.309
X141.625Y-97.825
X141.675Y-68.309
X142.375Y-68.281
X142.875Y-68.281
X142.925Y-92.625
X143.575Y-68.296
X144.075Y-68.296
X144.225Y-83.525
X144.225Y-84.175
X144.225Y-84.875
X144.225Y-88.075
X144.225Y-88.725
X144.875Y-84.875
X144.925Y-93.275
X144.925Y-93.925
X145.175Y-68.287
X145.575Y-95.225
X145.675Y-68.287
X146.175Y-93.925
X146.808Y-93.908
X146.825Y-95.225
M30
